<?xml version="1.0" encoding="UTF-8" standalone="no"?>
<!-- Created with Inkscape (http://www.inkscape.org/) -->

<svg
   width="61.607254mm"
   height="59.250072mm"
   viewBox="0 0 61.607254 59.250072"
   version="1.1"
   id="svg5"
   inkscape:version="1.1.2 (b8e25be8, 2022-02-05)"
   sodipodi:docname="green-leaf.svg"
   xmlns:inkscape="http://www.inkscape.org/namespaces/inkscape"
   xmlns:sodipodi="http://sodipodi.sourceforge.net/DTD/sodipodi-0.dtd"
   xmlns="http://www.w3.org/2000/svg"
   xmlns:svg="http://www.w3.org/2000/svg">
  <sodipodi:namedview
     id="namedview7"
     pagecolor="#ffffff"
     bordercolor="#666666"
     borderopacity="1.0"
     inkscape:pageshadow="2"
     inkscape:pageopacity="0.0"
     inkscape:pagecheckerboard="0"
     inkscape:document-units="mm"
     showgrid="false"
     inkscape:zoom="0.78009225"
     inkscape:cx="66.658783"
     inkscape:cy="208.3087"
     inkscape:window-width="1920"
     inkscape:window-height="947"
     inkscape:window-x="1440"
     inkscape:window-y="25"
     inkscape:window-maximized="1"
     inkscape:current-layer="layer1" />
  <defs
     id="defs2" />
  <g
     inkscape:label="Layer 1"
     inkscape:groupmode="layer"
     id="layer1"
     transform="translate(-23.802746,-76.47365)">
    <path
       style="fill:#000000;stroke-width:0.264583"
       id="path2792"
       d="" />
    <path
       style="fill:#4ec26a;fill-opacity:1;stroke:#4ec26a;stroke-width:0.182032;stroke-opacity:1"
       d="m 49.165239,135.51748 c -6.30052,-0.7244 -12.31883,-3.68938 -16.98419,-8.36743 -2.52103,-2.52789 -3.96878,-4.50907 -5.43812,-7.44184 -2.30598,-4.60268 -3.14403,-9.11376 -2.75955,-14.85415 0.41121,-6.139531 2.74368,-11.444061 6.9811,-15.876481 1.48155,-1.54972 3.73891,-3.52601 4.0275,-3.52601 0.0621,0 -0.50155,0.62042 -1.25249,1.37871 -9.02083,9.10907 -10.23547,23.069491 -2.94468,33.844451 1.44254,2.13191 4.64928,5.33209 6.81434,6.80039 3.0223,2.04967 6.63413,3.55816 9.96057,4.16008 2.29422,0.41513 7.96894,0.40609 10.1528,-0.0162 3.3045,-0.63896 7.70062,-2.55009 10.32835,-4.49006 1.8693,-1.38004 5.06846,-4.56001 6.21848,-6.18117 1.8433,-2.59846 3.64229,-6.64409 4.23407,-9.52171 0.76264,-3.70848 0.72897,-8.79234 -0.0792,-11.957651 -0.84757,-3.3196 -2.42153,-7.12237 -3.07984,-7.44109 -0.15832,-0.0767 -1.51657,-0.0841 -3.01833,-0.0165 -3.93643,0.17718 -5.80668,0.0431 -6.87795,-0.49296 -1.65081,-0.82609 -2.73124,-2.23397 -4.78858,-6.2399 -1.32547,-2.58086 -2.31808,-3.78546 -4.86677,-5.90615 -0.59448,-0.49465 -0.99158,-0.9515 -0.90356,-1.03952 0.23185,-0.23185 2.76208,-0.85448 5.14971,-1.26721 3.09412,-0.53488 6.18621,-0.65233 7.59703,-0.28859 3.4488,0.88918 5.21915,3.04481 6.69284,8.14934 1.26316,4.37534 1.35007,4.60284 2.1789,5.70374 1.61525,2.14545 1.77891,1.95519 1.62295,-1.88672 -0.11354,-2.79686 -0.0918,-3.15532 0.26157,-4.30869 0.49444,-1.61394 1.54579,-3.20501 3.04369,-4.60623 1.17121,-1.09561 1.53903,-1.3117 1.53903,-0.90418 0,0.11406 0.49663,1.21238 1.10362,2.4407 1.29475,2.62009 1.48041,3.60526 0.99578,5.28393 -0.17126,0.5932 -0.55147,1.52907 -0.84493,2.07972 -0.47529,0.89186 -1.07792,1.62986 -4.25769,5.21412 l -0.8307,0.93637 0.64942,1.73359 c 2.03997,5.445631 2.42921,11.508271 1.10662,17.236311 -1.57088,6.8033 -6.1432,13.15378 -12.39365,17.21349 -2.82896,1.83743 -6.25966,3.23553 -10.05262,4.09669 -1.81989,0.41319 -7.05342,0.6154 -9.28551,0.35877 z"
       id="path5268" />
    <path
       style="fill:#e32105;fill-opacity:1;stroke:#ff1930;stroke-width:0.182032;stroke-opacity:1"
       d="m 197.72127,216.97941 c -6.30052,-0.7244 -12.31883,-3.68938 -16.98419,-8.36743 -2.52103,-2.52789 -3.96878,-4.50907 -5.43812,-7.44184 -2.30598,-4.60268 -3.14403,-9.11376 -2.75955,-14.85415 0.41121,-6.13953 2.74368,-11.44406 6.9811,-15.87648 1.48155,-1.54972 3.73891,-3.52601 4.0275,-3.52601 0.0621,0 -0.50155,0.62042 -1.25249,1.37871 -9.02083,9.10907 -10.23547,23.06949 -2.94468,33.84445 1.44254,2.13191 4.64928,5.33209 6.81434,6.80039 3.0223,2.04967 6.63413,3.55816 9.96057,4.16008 2.29422,0.41513 7.96894,0.40609 10.1528,-0.0162 3.3045,-0.63896 7.70062,-2.55009 10.32835,-4.49006 1.8693,-1.38004 5.06846,-4.56001 6.21848,-6.18117 1.8433,-2.59846 3.64229,-6.64409 4.23407,-9.52171 0.76264,-3.70848 0.72897,-8.79234 -0.0792,-11.95765 -0.84757,-3.3196 -2.42153,-7.12237 -3.07984,-7.44109 -0.15832,-0.0767 -1.51657,-0.0841 -3.01833,-0.0165 -3.93643,0.17718 -5.80668,0.0431 -6.87795,-0.49296 -1.65081,-0.82609 -2.73124,-2.23397 -4.78858,-6.2399 -1.32547,-2.58086 -2.31808,-3.78546 -4.86677,-5.90615 -0.59448,-0.49465 -0.99158,-0.9515 -0.90356,-1.03952 0.23185,-0.23185 2.76208,-0.85448 5.14971,-1.26721 3.09412,-0.53488 6.18621,-0.65233 7.59703,-0.28859 3.4488,0.88918 5.21915,3.04481 6.69284,8.14934 1.26316,4.37534 1.35007,4.60284 2.1789,5.70374 1.61525,2.14545 1.77891,1.95519 1.62295,-1.88672 -0.11354,-2.79686 -0.0918,-3.15532 0.26157,-4.30869 0.49444,-1.61394 1.54579,-3.20501 3.04369,-4.60623 1.17121,-1.09561 1.53903,-1.3117 1.53903,-0.90418 0,0.11406 0.49663,1.21238 1.10362,2.4407 1.29475,2.62009 1.48041,3.60526 0.99578,5.28393 -0.17126,0.5932 -0.55147,1.52907 -0.84493,2.07972 -0.47529,0.89186 -1.07792,1.62986 -4.25769,5.21412 l -0.8307,0.93637 0.64942,1.73359 c 2.03997,5.44563 2.42921,11.50827 1.10662,17.23631 -1.57088,6.8033 -6.1432,13.15378 -12.39365,17.21349 -2.82896,1.83743 -6.25966,3.23553 -10.05262,4.09669 -1.81989,0.41319 -7.05342,0.6154 -9.28551,0.35877 z"
       id="path5268-7" />
    <path
       style="fill:#f5cc05;fill-opacity:1;stroke:#f5cc05;stroke-width:0.182032;stroke-opacity:1"
       d="m 114.28563,216.97941 c -6.30052,-0.7244 -12.31883,-3.68938 -16.984194,-8.36743 -2.52103,-2.52789 -3.96878,-4.50907 -5.43812,-7.44184 -2.30598,-4.60268 -3.14403,-9.11376 -2.75955,-14.85415 0.41121,-6.13953 2.74368,-11.44406 6.9811,-15.87648 1.48155,-1.54972 3.73891,-3.52601 4.027504,-3.52601 0.0621,0 -0.501554,0.62042 -1.252494,1.37871 -9.02083,9.10907 -10.23547,23.06949 -2.94468,33.84445 1.44254,2.13191 4.649284,5.33209 6.814344,6.80039 3.0223,2.04967 6.63413,3.55816 9.96057,4.16008 2.29422,0.41513 7.96894,0.40609 10.1528,-0.0162 3.3045,-0.63896 7.70062,-2.55009 10.32835,-4.49006 1.8693,-1.38004 5.06846,-4.56001 6.21848,-6.18117 1.8433,-2.59846 3.64229,-6.64409 4.23407,-9.52171 0.76264,-3.70848 0.72897,-8.79234 -0.0792,-11.95765 -0.84757,-3.3196 -2.42153,-7.12237 -3.07984,-7.44109 -0.15832,-0.0767 -1.51657,-0.0841 -3.01833,-0.0165 -3.93643,0.17718 -5.80668,0.0431 -6.87795,-0.49296 -1.65081,-0.82609 -2.73124,-2.23397 -4.78858,-6.2399 -1.32547,-2.58086 -2.31808,-3.78546 -4.86677,-5.90615 -0.59448,-0.49465 -0.99158,-0.9515 -0.90356,-1.03952 0.23185,-0.23185 2.76208,-0.85448 5.14971,-1.26721 3.09412,-0.53488 6.18621,-0.65233 7.59703,-0.28859 3.4488,0.88918 5.21915,3.04481 6.69284,8.14934 1.26316,4.37534 1.35007,4.60284 2.1789,5.70374 1.61525,2.14545 1.77891,1.95519 1.62295,-1.88672 -0.11354,-2.79686 -0.0918,-3.15532 0.26157,-4.30869 0.49444,-1.61394 1.54579,-3.20501 3.04369,-4.60623 1.17121,-1.09561 1.53903,-1.3117 1.53903,-0.90418 0,0.11406 0.49663,1.21238 1.10362,2.4407 1.29475,2.62009 1.48041,3.60526 0.99578,5.28393 -0.17126,0.5932 -0.55147,1.52907 -0.84493,2.07972 -0.47529,0.89186 -1.07792,1.62986 -4.25769,5.21412 l -0.8307,0.93637 0.64942,1.73359 c 2.03997,5.44563 2.42921,11.50827 1.10662,17.23631 -1.57088,6.8033 -6.1432,13.15378 -12.39365,17.21349 -2.82896,1.83743 -6.25966,3.23553 -10.05262,4.09669 -1.81989,0.41319 -7.05342,0.6154 -9.28551,0.35877 z"
       id="path5268-7-0" />
  </g>
</svg>
